<?xml version="1.0" encoding="UTF-8" standalone="no"?>
<!-- Created with Inkscape (http://www.inkscape.org/) -->

<svg
   width="36mm"
   height="26.499996mm"
   viewBox="0 0 36 26.499996"
   version="1.1"
   id="svg1"
   xml:space="preserve"
   sodipodi:docname="logo.svg"
   inkscape:version="1.3.2 (091e20e, 2023-11-25, custom)"
   xmlns:inkscape="http://www.inkscape.org/namespaces/inkscape"
   xmlns:sodipodi="http://sodipodi.sourceforge.net/DTD/sodipodi-0.dtd"
   xmlns="http://www.w3.org/2000/svg"
   xmlns:svg="http://www.w3.org/2000/svg"><sodipodi:namedview
     id="namedview1"
     pagecolor="#ffffff"
     bordercolor="#999999"
     borderopacity="1"
     inkscape:showpageshadow="2"
     inkscape:pageopacity="0"
     inkscape:pagecheckerboard="0"
     inkscape:deskcolor="#d1d1d1"
     inkscape:document-units="mm"
     inkscape:zoom="8"
     inkscape:cx="72.9375"
     inkscape:cy="43.5625"
     inkscape:window-width="2400"
     inkscape:window-height="1261"
     inkscape:window-x="2391"
     inkscape:window-y="-9"
     inkscape:window-maximized="1"
     inkscape:current-layer="layer1" /><defs
     id="defs1" /><g
     inkscape:label="Layer 1"
     inkscape:groupmode="layer"
     id="layer1"
     transform="translate(-160.52083,-98.933333)"><path
       style="fill:#e1e1e1;fill-opacity:1;stroke-width:0.264999;stroke-dasharray:none"
       d="m 160.52083,114.93333 18,10.5 18,-10.5 -8,-3 -10,10 -10,-10 z"
       id="path16"
       sodipodi:nodetypes="ccccccc" /><path
       style="fill:#181818;fill-opacity:1;stroke-width:0.264999;stroke-dasharray:none"
       d="m 176.02083,119.43333 2.5,-1 2.5,1 -2.5,2.5 z"
       id="path17"
       sodipodi:nodetypes="ccccc" /><path
       style="fill:#ce5334;fill-opacity:1;stroke-width:0.264999;stroke-dasharray:none"
       d="m 160.52083,114.93333 7,-9 2,-6.999997 6.5,3.999997 h 5 l 6.5,-3.999997 2,6.999997 7,9 -8,-3 -7.5,7.5 -2.5,-1 -2.5,1 -7.5,-7.5 z"
       id="path18"
       sodipodi:nodetypes="cccccccccccccc" /><path
       style="fill:#181818;fill-opacity:1;stroke-width:0.264999;stroke-dasharray:none"
       d="m 172.52083,111.93333 3,-1 -6,-1 z"
       id="path19"
       sodipodi:nodetypes="cccc" /><path
       style="fill:#181818;fill-opacity:1;stroke-width:0.264999;stroke-dasharray:none"
       d="m 184.52083,111.93333 -3,-1 6,-1 z"
       id="path19-8"
       sodipodi:nodetypes="cccc" /><path
       style="fill:#181818;fill-opacity:1;stroke-width:0.264999;stroke-dasharray:none"
       d="m 170.02083,100.43333 -1.5,5 6.5,-2 z"
       id="path25"
       sodipodi:nodetypes="cccc" /><path
       style="fill:#181818;fill-opacity:1;stroke-width:0.264999;stroke-dasharray:none"
       d="m 187.02083,100.43333 1.5,5 -6.5,-2 z"
       id="path25-1"
       sodipodi:nodetypes="cccc" /></g></svg>
